<?xml version="1.0" encoding="UTF-8"?> <svg xmlns="http://www.w3.org/2000/svg" width="295.285" height="328.904" viewBox="0 0 295.285 328.904"><defs><style>.a{fill:#fff;}.b{fill:#7a7600;}.c{fill:#b6034c;}</style></defs><g transform="translate(-69 84.452)"><path class="a" d="M195.7,296.2c84.2-28.1,118-105.9,99.9-178.2C275.4,39,194.9-8.6,115.9,11.6s-126,103-106.4,179.7c13.3,52,54.4,94.4,112,107.6,29.3,27.5,61.7,41.4,85.9,35.7h0C200.8,322.9,195.9,306.5,195.7,296.2Z" transform="translate(63.943 -91.41)"></path><g transform="translate(112.85 49.16)"><path class="b" d="M72.234,1.47c2.683,0,4.53.418,5.7,1.687A4.032,4.032,0,0,1,79.077,6.1,4.177,4.177,0,0,1,76.635,9.92a4.353,4.353,0,0,1,3.341,4.289,4.932,4.932,0,0,1-1.253,3.454c-1.285,1.349-3.213,1.912-6.072,1.912H68.941c-.98,0-1.141,0-1.141-.386V1.839c0-.321.161-.369,1.141-.369Zm-.787,7.406h.916A3.454,3.454,0,0,0,74.724,8.2,2.233,2.233,0,0,0,75.4,6.594a2.056,2.056,0,0,0-.53-1.478,3.373,3.373,0,0,0-2.506-.675h-.916Zm0,7.823h1.269a4.161,4.161,0,0,0,2.859-.723,2.345,2.345,0,0,0,.707-1.815,2.394,2.394,0,0,0-.578-1.735,4.016,4.016,0,0,0-3.02-.771H71.447Z" transform="translate(40.418 0.382)"></path><path class="b" d="M78.688,4.58c1.237,0,1.462,0,1.606.337A23.283,23.283,0,0,1,80.6,7.5c.8-2.072,1.847-3.213,3.47-3.213a1.606,1.606,0,0,1,.643.1c.177,0,.225.129.225,1.253v.353c0,1.285,0,1.333-.353,1.365a3.631,3.631,0,0,0-3,1.751,8.707,8.707,0,0,0-.932,4.819v3.55c0,.289-.145.386-1.606.386h-.129c-1.606,0-1.606-.1-1.606-.386V10.54c0-1.96-.08-4.145-.177-5.51,0-.337.08-.45,1.51-.45Z" transform="translate(46.076 2.091)"></path><path class="b" d="M95.2,10.955c0,4.546-2.265,7.149-6.426,7.149-3.743,0-6.04-2.3-6.04-6.651S85,4.32,89.156,4.32C92.9,4.32,95.2,6.6,95.2,10.955Zm-8.964.353c0,2.442.8,3.823,2.57,3.823s2.843-1.51,2.843-4.032-.8-3.823-2.57-3.823-2.843,1.51-2.843,4.032Z" transform="translate(49.472 2.11)"></path><path class="b" d="M93.546,4.545c1.221,0,1.446,0,1.606.337a8.934,8.934,0,0,1,.193,1.076A4.819,4.819,0,0,1,98.9,4.352a4.193,4.193,0,0,1,3.775,1.976,5,5,0,0,1,4-1.976A4.353,4.353,0,0,1,110.028,5.7a5.622,5.622,0,0,1,1.189,4v7.743c0,.289-.145.386-1.606.386h-.129c-1.606,0-1.606-.1-1.606-.386V10.665c0-1.735-.112-2.265-.514-2.715a2.008,2.008,0,0,0-1.606-.578,3.213,3.213,0,0,0-1.606.369,1.478,1.478,0,0,0-.707,1.333c0,.578,0,1.51,0,2.458v5.912c0,.289-.145.386-1.606.386h-.112c-1.606,0-1.606-.1-1.606-.386V10.665c0-1.735-.112-2.265-.514-2.715A2.008,2.008,0,0,0,98,7.372a3.213,3.213,0,0,0-1.606.369,1.51,1.51,0,0,0-.707,1.333v8.369c0,.289-.145.386-1.606.386h-.112c-1.606,0-1.687-.1-1.687-.386V10.5a51.478,51.478,0,0,0-.177-5.51c0-.337,0-.45,1.51-.45Z" transform="translate(55.154 2.126)"></path><path class="b" d="M107.661.84c1.43,0,1.606.08,1.606.321a68.648,68.648,0,0,1,.225,7.325v8.032c0,.578.209.851.835.851h.305c.225,0,.241.177.241,1.108V18.7c0,.9,0,1.012-.225,1.108a4.305,4.305,0,0,1-1.606.305,2.908,2.908,0,0,1-2.121-.755,3.5,3.5,0,0,1-.8-2.651V7.956c0-2.394-.129-5.88-.209-6.8,0-.273,0-.321,1.606-.321Z" transform="translate(63.529 0)"></path><path class="b" d="M113.8,12.384a3.02,3.02,0,0,0,3.309,2.763,9.012,9.012,0,0,0,3.55-.8c.273-.129.4,0,.675.739l.225.627c.305.851.289,1,0,1.173a10.554,10.554,0,0,1-4.819,1.221c-3.952,0-6.426-2.474-6.426-6.747s2.329-7.036,6.185-7.036,5.815,2.827,5.815,6.763c0,.98,0,1.3-.257,1.3Zm4.948-2.458c-.145-1.606-.932-2.715-2.345-2.715s-2.281,1.028-2.6,2.715Z" transform="translate(66.197 2.11)"></path><path class="b" d="M120.859,4.47c1.478,0,1.606.112,1.7.386l1.606,4.932a33.172,33.172,0,0,1,1.141,4.514c.241-1.3.643-2.892,1.108-4.466l1.462-4.98c.1-.273.241-.386,1.606-.386h.321c1.606,0,1.606.161,1.606.45l-4.305,12.61c-1.462,4.273-3.084,6.088-6.426,6.088a5.735,5.735,0,0,1-2.715-.627c-.225-.161-.177-.386,0-1.189l.145-.418c.241-.851.369-1.076.739-.948a6.875,6.875,0,0,0,1.606.241c1.365,0,2.249-.578,3.213-2.908L119.14,4.92c-.1-.289,0-.45,1.606-.45Z" transform="translate(70.749 2.201)"></path><path class="c" d="M105.237,26.879c-4.064,0-6.426,3.213-6.426,7.695s2.361,7.759,6.426,7.759,6.426-3.213,6.426-7.695-2.378-7.695-6.426-7.695m14.281-5.8V45.963a2.1,2.1,0,0,1-.594,1.606,5.076,5.076,0,0,1-3.438.932c-2.522,0-3.695-1.494-3.695-3.084v-.1a11.245,11.245,0,0,1-8.257,3.566c-7.679,0-12.964-5.622-12.964-14.313,0-8.273,5.88-14.313,13.446-14.313a10.683,10.683,0,0,1,7.791,3.213c.112-1.863,1.028-2.843,3.47-2.843h3.759c.337,0,.482.145.482.466" transform="translate(54.227 11.776)"></path><path class="c" d="M125.386,26.878c-4.064,0-6.426,3.213-6.426,7.695s2.313,7.759,6.426,7.759,6.426-3.213,6.426-7.695-2.378-7.695-6.426-7.695m14.683,7.695c0,8.418-6.008,14.313-13.526,14.313a11.406,11.406,0,0,1-7.277-2.763V56.742a2.2,2.2,0,0,1-.594,1.606,6.426,6.426,0,0,1-6.956,0,2.2,2.2,0,0,1-.594-1.606V21.079c0-.321.161-.466.482-.466h3.759c2.522,0,3.422,1.044,3.486,3.036a11.775,11.775,0,0,1,8.193-3.39c7.55,0,13.028,5.382,13.028,14.313" transform="translate(66.688 11.777)"></path><path class="c" d="M98.392,22.788a3.213,3.213,0,0,1,.514,3.775,2.94,2.94,0,0,1-2.474,2.1c-1.7,0-3.341-1.43-6.265-1.43-4.129,0-6.988,2.811-6.988,7.341s2.811,7.309,6.667,7.309c3.036,0,5.173-1.606,6.715-1.606.755,0,1.687.257,2.41,1.815a3,3,0,0,1-1.108,4.418,19.1,19.1,0,0,1-9.092,2.329c-8.032,0-13.879-5.221-13.879-14.137,0-8.626,6.056-14.458,14.763-14.458,2.618,0,6.859.707,8.739,2.538" transform="translate(44.718 11.771)"></path><path class="c" d="M71.977,38.018a6.827,6.827,0,0,0-6.554,5.815H78.114a6.12,6.12,0,0,0-6.137-5.815m42.12-3.39a11.245,11.245,0,0,0-7.839-2.8,11.871,11.871,0,0,0-8.337,3.213c-.1-1.88-1.028-2.859-3.454-2.859H90.692a.418.418,0,0,0-.482.482v8.675a44.639,44.639,0,1,0-54.442,47.9c7.181,7.438,15.936,11.39,22.956,11.39a16.932,16.932,0,0,0,2.892-.241c.418-.1.61-.353.369-.771a22.747,22.747,0,0,1-3.213-11.149A44.305,44.305,0,0,0,90.21,50.163v7.293a2.2,2.2,0,0,0,.594,1.606,4.819,4.819,0,0,0,3.486,1.012,4.819,4.819,0,0,0,3.47-1.012,2.2,2.2,0,0,0,.594-1.606V44.267A5.7,5.7,0,0,1,99.7,39.962a5.96,5.96,0,0,1,7.855,0,5.687,5.687,0,0,1,1.333,4.305V57.392A2.2,2.2,0,0,0,109.487,59a6.426,6.426,0,0,0,6.956,0,2.2,2.2,0,0,0,.594-1.606V42.821c0-4.129-1.06-6.426-2.94-8.209M53.921,57.44a2.233,2.233,0,0,1-.578,1.606,4.819,4.819,0,0,1-3.486,1.012,4.819,4.819,0,0,1-3.486-1.012,2.2,2.2,0,0,1-.578-1.606V44.267A5.8,5.8,0,0,0,44.427,39.9a5.365,5.365,0,0,0-7.149,0,5.8,5.8,0,0,0-1.43,4.369V57.44a2.233,2.233,0,0,1-.594,1.606,4.819,4.819,0,0,1-3.47,1.012A4.819,4.819,0,0,1,28.3,59.046,2.217,2.217,0,0,1,27.7,57.44V44.267A5.863,5.863,0,0,0,26.355,39.9a4.819,4.819,0,0,0-3.582-1.365A4.819,4.819,0,0,0,19.19,39.9a5.863,5.863,0,0,0-1.365,4.369V57.44a2.233,2.233,0,0,1-.578,1.606,4.819,4.819,0,0,1-3.486,1.028,4.819,4.819,0,0,1-3.486-1.012A2.2,2.2,0,0,1,9.7,57.456V32.669c0-.337.145-.482.466-.482h3.775c2.426,0,3.357.98,3.47,2.843a11.823,11.823,0,0,1,8.032-3.213,10.715,10.715,0,0,1,7.438,2.811,10.265,10.265,0,0,1,1.237,1.414,12.675,12.675,0,0,1,9.317-4.209,10.747,10.747,0,0,1,7.47,2.8c1.863,1.783,3.02,3.92,3.02,8.193Zm28.273-8.867H65.519a6.747,6.747,0,0,0,1.944,3.486,8.578,8.578,0,0,0,5.928,1.847c3.534,0,6.249-1.462,7.695-1.462a2.41,2.41,0,0,1,2.474,1.751A3.02,3.02,0,0,1,82.1,58.5a24.771,24.771,0,0,1-9.639,1.96,15.775,15.775,0,0,1-11.149-4.016,14.217,14.217,0,0,1-4.064-10.249A14.458,14.458,0,0,1,71.8,31.737,13.462,13.462,0,0,1,85.552,45.681c0,1.847-1.157,2.811-3.438,2.811" transform="translate(0 0.203)"></path></g></g></svg> 